<?xml version="1.0" encoding="utf-8"?>
<!-- Generator: Adobe Illustrator 22.1.0, SVG Export Plug-In . SVG Version: 6.00 Build 0)  -->
<svg version="1.1" id="Calque_1" xmlns="http://www.w3.org/2000/svg" xmlns:xlink="http://www.w3.org/1999/xlink" x="0px" y="0px"
	 viewBox="0 0 1024 768" style="enable-background:new 0 0 1024 768;" xml:space="preserve">
<style type="text/css">
	.st0{fill:#1D1D1B;}
	.st1{fill:#FFE900;stroke:#FFE900;}
	.st2{fill:#F60000;stroke:#F60000;}
</style>
<path class="st0" d="M155.4,672.2c-30,0-53.9-23.8-53.9-54.6c0-31.5,23.9-55.4,53.9-55.4c29.2,0,53.1,23.8,53.1,55.4
	C208.5,648.3,184.7,672.2,155.4,672.2z"/>
<path class="st0" d="M924,466.8c0-124.4-71.1-206.5-179.4-206.5c-78.6,0-135.2,44.9-162.9,110.2c-30.4-73.7-101.1-110.2-175.6-110.2
	c-29.6,0-54.2,5.1-77.8,11.9V70.7H226.7v578.9c33,18.6,77.9,28.8,132,28.8c95.4,0,179.6-45,217.5-124.9
	c24.6,70.9,83.6,124.9,185.4,124.9c47.4,0,100.7-12.7,145.6-44l-24.5-65.1c-34.7,18.6-66,27.9-104.1,27.9
	c-61.8,0-110.9-41.5-112.6-100.7H924C924,483.7,924,473.5,924,466.8z"/>
<path class="st1" d="M495.8,463.4c0,74.5-49.9,132-117.6,132c-20.3,0-34.7-2.5-49.9-7.6V358.4c14.4-5.9,31.3-12.7,56.7-12.7
	C454.3,345.7,495.8,400.8,495.8,463.4z"/>
<path class="st2" d="M819.1,424.4H663.4c0-44,29.6-88,78.7-88C793.7,336.4,817.4,381.3,819.1,424.4z"/>
</svg>
